<?xml version="1.0" standalone="yes"?>
<svg xmlns="http://www.w3.org/2000/svg" width="200" height="200">
<path style="fill:#050b10; stroke:none;" d="M0 0L0 6L1 6L6 1L0 0z"/>
<path style="fill:#316fab; stroke:none;" d="M6 0L7 1L6 0z"/>
<path style="fill:#4ba9ff; stroke:none;" d="M7.01543 0.57254C-5.11523 4.15895 0 34.1096 0 44L0 154C0 164.536 -4.21941 186.972 2.00926 195.786C5.04883 200.088 10.2774 199.992 15 200L47 200L147 200C160.686 200 179.833 203.477 192.91 199.427C205.129 195.643 200 165.955 200 156L200 46C200 35.6304 204.259 12.8711 198.142 4.21373C195.105 -0.0836945 189.701 0.00785828 185 0L153 0L53 0C39.1541 0 20.2983 -3.35451 7.01543 0.57254z"/>
<path style="fill:#316fab; stroke:none;" d="M193 0L194 1L193 0z"/>
<path style="fill:#050b10; stroke:none;" d="M194 0L194 1L199 6L200 6L200 0L194 0z"/>
<path style="fill:#316fab; stroke:none;" d="M195 1L196 2L195 1M1 4L2 5L1 4M0 6L1 7L0 6M199 6L200 7L199 6z"/>
<path style="fill:#88c5fe; stroke:none;" d="M65 81L66 82L65 81z"/>
<path style="fill:#e9f3fd; stroke:none;" d="M73 90C63.3079 92.3986 63.8477 82.7073 73 86C70.0539 80.1629 62.2176 80.3973 62.2176 88C62.2176 95.5582 70.0165 95.6811 73 90z"/>
<path style="fill:#88c5fe; stroke:none;" d="M70 81L71 82L70 81M74 81L74 91L75 91L74 81z"/>
<path style="fill:#e9f3fd; stroke:none;" d="M75 81C75 83.3264 74.9163 85.6726 75.0193 87.9969C75.6321 101.828 92.1442 87.5765 82 81C81.9987 92.7807 77.009 92.7148 77 81L75 81z"/>
<path style="fill:#88c5fe; stroke:none;" d="M77 81L77 91L78 91L77 81M84 81L85 82L84 81z"/>
<path style="fill:#e9f3fd; stroke:none;" d="M87 81L87 94C91.1847 93.9968 99.3585 94.0227 95 88C97.7065 81.7813 92.1142 81.1096 87 81z"/>
<path style="fill:#88c5fe; stroke:none;" d="M93.6667 81.3333L94.3333 81.6667L93.6667 81.3333M99 81L100 82L99 81z"/>
<path style="fill:#e9f3fd; stroke:none;" d="M99 94L108 94L108 92L102 92L102 89L107 89L107 87L102 87L102 83L108 83L108 81C98.373 81.034 99 85.5783 99 94M109 81L109 83L113 83L113 94L116 94L116 83L120 83L120 81L109 81z"/>
<path style="fill:#88c5fe; stroke:none;" d="M121 81C121 85.9905 119.33 93.1182 125 95L125 81L124 81L124 94L122 94L121 81z"/>
<path style="fill:#e9f3fd; stroke:none;" d="M122 81L122 94L124 94L124 81L122 81z"/>
<path style="fill:#88c5fe; stroke:none;" d="M129 81L127 84L129 81z"/>
<path style="fill:#e9f3fd; stroke:none;" d="M137 96C137.058 93.0582 138.101 89.9325 137.721 87.0154C136.092 74.4802 119.218 88.1094 131.054 94.4275C132.919 95.4228 134.951 95.6915 137 96z"/>
<path style="fill:#88c5fe; stroke:none;" d="M134 81L135 82L134 81M63 82L64 83L63 82M71 82L72 83L71 82M108 82L109 83L108 82M66 83L66 84L69 84L66 83M72 83L73 84L72 83M90 83L90 84L94 85L94 84L90 83M96 83L97 84L96 83M102 83L102 84L108 84L102 83M109 83L109 84L113 84L109 83M116 83L116 84L120 84L116 83M131 83L131 84L134 86L135 86L131 83M62 84L63 85L62 84M65 84L66 85L65 84z"/>
<path style="fill:#4ba9ff; stroke:none;" d="M90 84L94 86L90 84M130 84C130.047 87.9346 129.954 90.6571 134 92C134.924 87.697 134.763 84.8272 130 84z"/>
<path style="fill:#88c5fe; stroke:none;" d="M137 84L138 85L137 84M70 85L71 86L70 85M126 85L126 91L127 91L126 85M129 85L129 90L130 90L129 85M90 86L90 87L93 87L90 86M96 86L97 87L96 86M102 86L102 87L107 87L102 86M95 87L96 88L95 87M96 88L97 89L96 88z"/>
<path style="fill:#4ba9ff; stroke:none;" d="M90 89L90 92L94 92L94 89L90 89z"/>
<path style="fill:#88c5fe; stroke:none;" d="M65 90L66 91L65 90M134 90L135 91L134 90M62 91L63 92L62 91M69 91L70 92L69 91M81 91L82 92L81 91M84.3333 91.6667L84.6667 92.3333L84.3333 91.6667M130 91L131 92L130 91M67 92L68 93L67 92M72 92L73 93L72 92M79 92L80 93L79 92M127 92L128 93L127 92M132 92L133 93L132 92M136 92L137 93L136 92M71 93L72 94L71 93M83 93L84 94L83 93M108 93L109 94L108 93M128 93L129 94L128 93M65 94L66 95L65 94M69 94L70 95L69 94M77.6667 94.3333L78.3333 94.6667L77.6667 94.3333M81 94L82 95L81 94M87 94L87 95L94 95L87 94M99 94L99 95L108 95L99 94M113 94L113 95L116 95L113 94M130 94L131 95L130 94M137 95L138 96L137 95M135.667 96.3333L136.333 96.6667L135.667 96.3333M84.6667 102.333L85.3333 102.667L84.6667 102.333M120 102L121 103L120 102M36 103L36 117L45 117L45 116L37 116L36 103z"/>
<path style="fill:#e9f3fd; stroke:none;" d="M37 103L37 116L45 116L45 114L39 114L39 103L37 103M84 103L84 105L87 105L87 103L84 103z"/>
<path style="fill:#88c5fe; stroke:none;" d="M117 103L118 104L117 103z"/>
<path style="fill:#e9f3fd; stroke:none;" d="M125 116L125 109L120 110L123 111C119.586 117.989 113.206 103.933 125 107C119.637 97.2823 110.405 110.343 117.318 114.972C119.436 116.391 122.586 115.991 125 116z"/>
<path style="fill:#88c5fe; stroke:none;" d="M123 103L124 104L123 103M124 104L125 105L124 104M84 107L87 107L86 105L84 107M115 105L116 106L115 105M121 105L122 106L121 105M49 106L49 107L53 107L49 106M58.6667 106.333L59.3333 106.667L58.6667 106.333z"/>
<path style="fill:#e9f3fd; stroke:none;" d="M57 109L62 109C54.0501 113.089 57.8571 115.975 65 116L64 107L57 109z"/>
<path style="fill:#88c5fe; stroke:none;" d="M61.6667 106.333L62.3333 106.667L61.6667 106.333M66 106C66 109.884 64.4191 116.018 69 117L69 116C66.6754 112.928 66.6754 110.072 69 107L66 106M70 106L70 107L76 117L76 116C73.6754 112.928 73.6754 110.072 76 107L76 106L70 106M77 106L77 107L82 108L77 106M89 106L89 117L91 117L92 109L94 109L95 117L97 117L98 108L97 108L97 116L95 116L94 108L92 108L91 116L89 116L91 107L89 106M92 106L92 107L96 107L92 106M101 106L101 107L105 107L101 106M106 106L106 107L108 117L109 117C109 112.808 109.825 108.48 106 106M122 106L123 107L122 106M125 106L126 107L125 106M127 106L128 117L130 117L131 109L130 109L130 116L128 116L130 107L127 106M131 106L131 107L135 109L131 106M136 106L136 107L143 109L136 106M145 106L144 114L145 114L145 107L147 107L148 115L150 115L153 107L153 106C149.013 106.854 150 110.489 150 114L148 114L147 106L145 106M155 106L155 107L158 107L155 106M159 106L159 107L162 107L159 106M47 107L48 108L47 107z"/>
<path style="fill:#e9f3fd; stroke:none;" d="M54 114L49 112L55 112C54.0131 107.478 47.1544 104.745 46.466 111.039C45.9631 115.638 51.4857 116.859 54 114M67 107L67 116L69 116L72 107L67 107M74 107L74 116L76 116L77 108L78 108L79 116L82 116C81.9765 109.364 80.9316 107.082 74 107M84 107L84 116L87 116L87 107L84 107M89 107L89 116L91 116L92 108L94 108L95 116L97 116L97 107L89 107M105 116L105 118L100 118L100 119C108.669 121.289 108 113.319 108 107C100.141 107.028 95.1586 115.215 105 116z"/>
<path style="fill:#88c5fe; stroke:none;" d="M117 107L117 112L118 112L117 107M123.667 107.333L124.333 107.667L123.667 107.333z"/>
<path style="fill:#e9f3fd; stroke:none;" d="M128 107L128 116L130 116L133 107L128 107M135.743 108.032C131.757 111.17 136.082 118.006 140.685 114.968C145.427 111.838 139.996 104.684 135.743 108.032M145 107C145.023 113.636 146.068 115.918 153 116L153 107L151 107L150 115L148 115L147 107L145 107M155 107L155 120L158 120L158 116C167.841 115.215 162.859 107.028 155 107z"/>
<path style="fill:#88c5fe; stroke:none;" d="M50 108L51 109L50 108M54 108L55 109L54 108M56 108L58 111L59 111L62 110L62 109L56 108M64 108L64 115L65 115L64 108M77 108L78 109L77 108M99 108L100 109L99 108M103 108L104 109L103 108M114 108L114 111L115 111L114 108M138 108L139 109L138 108M159 108L160 109L159 108M163 108L164 109L163 108z"/>
<path style="fill:#4ba9ff; stroke:none;" d="M49 109L49 110L52 110L49 109M59.6667 109.333L60.3333 109.667L59.6667 109.333z"/>
<path style="fill:#88c5fe; stroke:none;" d="M69 109L70 110L69 109z"/>
<path style="fill:#4ba9ff; stroke:none;" d="M102 109L102 114L105 114L105 109L102 109z"/>
<path style="fill:#88c5fe; stroke:none;" d="M105 109L105 113L106 113L105 109M120 109L121 110L120 109M125 109L125 115L126 115L125 109z"/>
<path style="fill:#4ba9ff; stroke:none;" d="M137 109L137 114L140 114L140 109L137 109M158 109L158 114L161 114L161 109L158 109z"/>
<path style="fill:#88c5fe; stroke:none;" d="M49 110L49 111L52 111L49 110M136 110L136 113L137 113L136 110M140 110L140 113L141 113L140 110M161 110L161 113L162 113L161 110M120 111L120 112L122 114L123 114L120 111M133 111L134 112L133 111M49 112L52 115L52 114L50 114L50 113L55 113L49 112z"/>
<path style="fill:#4ba9ff; stroke:none;" d="M59 112L59 114L61 114L61 112L59 112z"/>
<path style="fill:#88c5fe; stroke:none;" d="M61.3333 112.667L61.6667 113.333L61.3333 112.667z"/>
<path style="fill:#4ba9ff; stroke:none;" d="M50 113L50 114L53 114L50 113z"/>
<path style="fill:#88c5fe; stroke:none;" d="M118 113L119 114L118 113M54.3333 114.667L54.6667 115.333L54.3333 114.667M59.6667 114.333L60.3333 114.667L59.6667 114.333M99 114L100 115L99 114M103 114L104 115L103 114M120 114L121 115L120 114M134 114L135 115L134 114M138 114L139 115L138 114M142 114L143 115L142 114M159 114L160 115L159 114M163 114L164 115L163 114M47 115L48 116L47 115M56 115L57 116L56 115M116 115L117 116L116 115M141 115L142 116L141 115M145 115L146 116L145 115M49 116L49 117L53 117L49 116M58 116L58 117L61 117L58 116M62 116L62 117L65 117L62 116M79 116L79 117L82 117L79 116M84 116L84 117L87 117L84 116M100 117L100 118L105 117L100 117M118 116L118 117L123 117L118 116M136 116L136 117L140 117L136 116M146 116L146 117L150 117L146 116M151.667 116.333L152.333 116.667L151.667 116.333M159 116L159 117L162 117L159 116z"/>
<path style="fill:#4ba9ff; stroke:none;" d="M102 117L102 118L105 118L102 117z"/>
<path style="fill:#88c5fe; stroke:none;" d="M107 118L108 119L107 118M100 119L101 120L100 119M106 119L107 120L106 119M102 120L102 121L105 121L102 120M155 120L155 121L158 121L155 120M99.6667 147.333L100.333 147.667L99.6667 147.333z"/>
<path style="fill:#e9f3fd; stroke:none;" d="M99 148L90 165L110 165L101 148L99 148z"/>
<path style="fill:#88c5fe; stroke:none;" d="M98 149L99 150L98 149M101 149L102 150L101 149M97 150L98 151L97 150M102 150L103 151L102 150M96 152L97 153L96 152M103 152L104 153L103 152M95 154L96 155L95 154M104 154L105 155L104 154M93 157L94 158L93 157M106 157L107 158L106 157M92 159L93 160L92 159M107 159L108 160L107 159M91 160L92 161L91 160M108 160L109 161L108 160M90.3333 162.667L90.6667 163.333L90.3333 162.667M109.333 162.667L109.667 163.333L109.333 162.667M89 164C92.1436 167.597 107.856 167.597 111 164L89 164z"/>
<path style="fill:#316fab; stroke:none;" d="M0 193L1 194L0 193M199 193L200 194L199 193z"/>
<path style="fill:#050b10; stroke:none;" d="M0 194L0 200L6 200L6 199L0 194M199 194L194 199L194 200L200 200L199 194z"/>
<path style="fill:#316fab; stroke:none;" d="M1 195L2 196L1 195M198 195L199 196L198 195M197 196L198 197L197 196M196 197L197 198L196 197M4 198L5 199L4 198M6 199L7 200L6 199M193 199L194 200L193 199z"/>
</svg>
